<svg width="600" height="600" xmlns="http://www.w3.org/2000/svg">
 <g>
  <title>Layer 1</title>
  <text font-style="normal" fill="#000000" x="238.3912" y="547.6875" id="svg_2" stroke-width="0" font-size="50" font-family="monospace" text-anchor="start" xml:space="preserve" font-weight="normal" stroke="#000" transform="matrix(1.39917 0 0 1.2973 -219.948 -181.649)">ExpressTalk</text>
  <path stroke-width="0" stroke="#000" id="svg_1" d="m186.5,137.72169l0,0c0,-11.83084 11.64526,-21.42163 26.01041,-21.42163l11.82292,0l0,0l56.75001,0l106.40624,0c6.89841,0 13.51425,2.25691 18.39217,6.27425c4.87788,4.01734 7.61826,9.46602 7.61826,15.14738l0,53.55408l0,0l0,32.13244l0,0c0,11.83085 -11.64525,21.42163 -26.01042,21.42163l-106.40624,0l-74.13688,54.47023l17.38688,-54.47023l-11.82292,0c-14.36515,0 -26.01041,-9.59078 -26.01041,-21.42163l0,0l0,-32.13244l0,0l-0.00001,-53.55408z" fill="#ffc700"/>
  <path transform="rotate(180 300 339.8)" stroke-width="0" stroke="#000" id="svg_5" d="m186.5,269.72169l0,0c0,-11.83084 11.64526,-21.42163 26.01041,-21.42163l11.82293,0l0,0l56.75001,0l106.40623,0c6.89841,0 13.51426,2.25691 18.39217,6.27425c4.87788,4.01734 7.61826,9.46602 7.61826,15.14738l0,53.55409l0,0l0,32.13244l0,0c0,11.83084 -11.64525,21.42163 -26.01042,21.42163l-106.40624,0l-74.13688,54.47023l17.38687,-54.47023l-11.82292,0c-14.36515,0 -26.01041,-9.59079 -26.01041,-21.42163l0,0l0,-32.13244l0,0l-0.00001,-53.55409z" fill="#4c4c4c"/>
  <path stroke-width="0" id="svg_6" d="m293.42373,149.22683l12.39463,18.85939l-5.11081,2.22571l15.6072,16.15837l-5.10852,2.69851l19.29376,27.05803l-32.72566,-20.73552l6.24196,-2.87958l-20.33332,-13.2813l7.28611,-4.10435l-21.46906,-13.93266l23.92371,-12.06659z" stroke="#000" fill="#ffffff"/>
 </g>

</svg>